{  "asset": {    "version": "2.0",    "generator": "THREE.GLTFExporter"  },  "scenes": [    {      "name": "AuxScene",      "nodes": [        1      ]    }  ],  "scene": 0,  "nodes": [    {      "mesh": 0    },    {      "children": [        0      ]    }  ],  "bufferViews": [    {      "buffer": 0,      "byteOffset": 0,      "byteLength": 38880,      "target": 34962,      "byteStride": 12    },    {      "buffer": 0,      "byteOffset": 38880,      "byteLength": 38880,      "target": 34962,      "byteStride": 12    }  ],  "buffers": [    {      "byteLength": 77760,      "uri": "data:application/octet-stream;base64,"    }  ],  "accessors": [    {      "bufferView": 0,      "componentType": 5126,      "count": 3240,      "max": [        32.12389373779297,        2.7876105308532715,        5.304973602294922      ],      "min": [        -32.12389373779297,        -2.7876105308532715,        -5.304973125457764      ],      "type": "VEC3"    },    {      "bufferView": 1,      "componentType": 5126,      "count": 3240,      "max": [        1,        1,        1      ],      "min": [        -1,        -1,        -1      ],      "type": "VEC3"    }  ],  "materials": [    {      "pbrMetallicRoughness": {        "baseColorFactor": [          0.6038273388475408,          0.6038273388475408,          0.6038273388475408,          1        ],        "metallicFactor": 0.5,        "roughnessFactor": 0.5      },      "doubleSided": true,      "name": "mat0"    }  ],  "meshes": [    {      "primitives": [        {          "mode": 4,          "attributes": {            "POSITION": 0,            "NORMAL": 1          },          "material": 0        }      ]    }  ]}