{"buffers":[{"uri":"scene.bin","byteLength":110304}],"asset":{"version":"2.0","generator":"gltfpack 0.16"},"bufferViews":[{"buffer":0,"byteOffset":0,"byteLength":44256,"byteStride":12,"target":34962},{"buffer":0,"byteOffset":44256,"byteLength":44256,"byteStride":12,"target":34962},{"buffer":0,"byteOffset":88512,"byteLength":21792,"target":34963}],"accessors":[{"bufferView":0,"byteOffset":0,"componentType":5126,"count":944,"type":"VEC3","min":[18.9500008,-1.987064,-1.04999995],"max":[21.0499992,22.0070648,1.04999995]},{"bufferView":1,"byteOffset":0,"componentType":5126,"count":944,"type":"VEC3"},{"bufferView":2,"byteOffset":0,"componentType":5123,"count":2772,"type":"SCALAR"},{"bufferView":0,"byteOffset":11328,"componentType":5126,"count":944,"type":"VEC3","min":[-3.1500001,-1.987064,-1.04999995],"max":[-1.04999995,22.0070648,1.04999995]},{"bufferView":1,"byteOffset":11328,"componentType":5126,"count":944,"type":"VEC3"},{"bufferView":2,"byteOffset":5544,"componentType":5123,"count":2772,"type":"SCALAR"},{"bufferView":0,"byteOffset":22656,"componentType":5126,"count":360,"type":"VEC3","min":[-4.05000019,-2.94000006,-19.9500008],"max":[21.9500008,22.960001,1.04999995]},{"bufferView":1,"byteOffset":22656,"componentType":5126,"count":360,"type":"VEC3"},{"bufferView":2,"byteOffset":11088,"componentType":5123,"count":1044,"type":"SCALAR"},{"bufferView":0,"byteOffset":26976,"componentType":5126,"count":552,"type":"VEC3","min":[15.8500004,16.9300003,1],"max":[17.9500008,19.0300007,2.9995718]},{"bufferView":1,"byteOffset":26976,"componentType":5126,"count":552,"type":"VEC3"},{"bufferView":2,"byteOffset":13176,"componentType":5123,"count":1644,"type":"SCALAR"},{"bufferView":0,"byteOffset":33600,"componentType":5126,"count":888,"type":"VEC3","min":[-3.1500001,16.9300003,-0.997063994],"max":[21.0499992,19.0300007,3]},{"bufferView":1,"byteOffset":33600,"componentType":5126,"count":888,"type":"VEC3"},{"bufferView":2,"byteOffset":16464,"componentType":5123,"count":2664,"type":"SCALAR"}],"materials":[{"pbrMetallicRoughness":{"baseColorFactor":[0.627451003,0.627451003,0.627451003,1],"metallicFactor":0},"doubleSided":true}],"meshes":[{"primitives":[{"attributes":{"POSITION":0,"NORMAL":1},"mode":4,"indices":2,"material":0}]},{"primitives":[{"attributes":{"POSITION":3,"NORMAL":4},"mode":4,"indices":5,"material":0}]},{"primitives":[{"attributes":{"POSITION":6,"NORMAL":7},"mode":4,"indices":8,"material":0}]},{"primitives":[{"attributes":{"POSITION":9,"NORMAL":10},"mode":4,"indices":11,"material":0}]},{"primitives":[{"attributes":{"POSITION":12,"NORMAL":13},"mode":4,"indices":14,"material":0}]}],"nodes":[{"mesh":0},{"mesh":1},{"mesh":2},{"mesh":3},{"mesh":4},{"name":"z_gantry_l","children":[0]},{"name":"z_gantry_r","children":[1]},{"name":"baseplate","children":[2]},{"name":"x_gantry","children":[3]},{"name":"y_gantry","children":[4]}],"scenes":[{"nodes":[5,6,7,8,9]}]}